# Blender 4.0.2
# www.blender.org
mtllib duck.mtl
o Cube
v 0.219846 1.747292 -0.493219
v 0.413176 1.670347 -0.860142
v 0.556670 1.334978 -0.989492
v 0.633022 1.114070 -1.047523
v 0.633022 0.766774 -1.047523
v 0.556670 0.440422 -0.851978
v 0.413176 0.068934 -0.621986
v 0.219846 0.009398 -0.126847
v 0.360764 1.770186 0.051962
v 0.633022 1.601023 -0.069868
v 0.852868 1.334978 -0.153175
v 0.969846 1.008626 -0.197502
v 0.969846 0.661330 -0.197502
v 0.852868 0.334978 -0.153175
v 0.633022 0.068934 -0.069868
v 0.336824 0.009398 0.042370
v 0.296198 1.774671 0.429909
v 0.556670 1.601023 0.860689
v 0.750000 1.334978 1.100561
v 0.852868 1.008626 1.228194
v 0.852868 0.661330 1.228194
v 0.750000 0.334978 1.100561
v 0.556670 0.068934 0.860689
v 0.296198 0.009398 0.537510
v 0.219846 1.601023 1.468067
v 0.296198 1.455862 1.705895
v 0.336824 1.129510 1.945768
v 0.336824 0.782214 1.945768
v 0.296198 0.374313 1.801834
v 0.219846 0.068934 1.468067
v 0.116978 0.009398 0.860689
v -0.219846 1.601023 1.468067
v -0.296198 1.455862 1.705895
v -0.336824 1.129510 1.945768
v -0.336824 0.782214 1.945768
v -0.296198 0.374313 1.801834
v -0.219846 0.068934 1.468067
v -0.116978 0.009398 0.860689
v -0.296198 1.774671 0.429909
v -0.556670 1.601023 0.860689
v -0.750000 1.334978 1.100561
v -0.852868 1.008626 1.228195
v -0.852868 0.661330 1.228195
v -0.750000 0.334978 1.100561
v -0.556670 0.068934 0.860689
v -0.296198 0.009398 0.537510
v 0.000000 -0.008784 0.162345
v 0.000377 1.798584 0.299465
v -0.327930 1.762305 0.040238
v -0.633022 1.601023 -0.069868
v -0.852868 1.334978 -0.153175
v -0.969846 1.008626 -0.197501
v -0.969846 0.661330 -0.197501
v -0.852868 0.334978 -0.153175
v -0.633022 0.068934 -0.069868
v -0.336824 0.009398 0.042371
v -0.219846 1.747292 -0.493219
v -0.413176 1.670347 -0.860142
v -0.556670 1.334978 -0.989492
v -0.633022 1.114070 -1.047523
v -0.633022 0.766774 -1.047523
v -0.556670 0.440422 -0.851977
v -0.413176 0.068934 -0.621986
v -0.219846 0.009398 -0.126847
v -0.000000 1.778167 -0.436036
v -0.000000 1.955037 -1.238961
v -0.000000 1.678496 -1.387802
v -0.000000 1.161149 -1.499108
v -0.000000 0.750746 -1.448140
v -0.000000 0.348275 -1.198786
v -0.000000 0.048554 -0.811966
v -0.000000 0.009398 -0.298807
v 0.316511 1.674157 -0.557603
v 0.484923 1.687847 -0.013749
v 0.471321 1.716754 0.552859
v -0.471321 1.716754 0.552859
v -0.482668 1.685580 -0.014403
v -0.316511 1.674157 -0.557602
v -0.000000 1.943893 -0.981013
v -0.000000 3.001841 0.622372
v -0.000000 2.698952 0.319484
v -0.000000 2.285199 0.208619
v -0.000000 1.871446 0.319484
v 0.358321 3.001841 0.829249
v 0.620630 2.698952 0.677805
v 0.716642 2.285199 0.622372
v 0.620630 1.871446 0.677805
v 0.358321 3.001841 1.243002
v 0.620630 2.698952 1.394446
v 0.716642 2.285199 1.449879
v 0.620630 1.871446 1.394446
v -0.000000 3.001841 1.449879
v -0.000000 2.698952 1.752767
v -0.000000 2.285199 1.863633
v -0.000000 1.871446 1.752767
v -0.000000 3.112706 1.036126
v -0.358321 3.001841 1.243002
v -0.620630 2.698952 1.394446
v -0.716642 2.285199 1.449879
v -0.620630 1.871446 1.394446
v -0.358321 3.001841 0.829249
v -0.620630 2.698952 0.677804
v -0.716642 2.285199 0.622372
v -0.620630 1.871446 0.677804
v 0.571342 2.110579 2.160635
v 0.494797 1.953964 2.178525
v -0.000000 2.110579 2.385222
v -0.000000 1.953964 2.347679
v -0.571343 2.110579 2.160634
v -0.494797 1.953964 2.178525
v -0.000000 2.205913 2.014633
v 0.699012 2.205913 1.600880
v -0.000000 1.939557 1.903768
v -0.605362 1.939557 1.545447
v 0.605362 1.939557 1.545447
v -0.699012 2.205913 1.600879
v 0.500857 1.601023 1.241146
v -0.500857 1.601023 1.241146
v 0.000000 1.556898 1.660703
v 0.000000 1.601023 1.553567
v -0.333378 2.675477 1.551010
v -0.288687 2.623873 1.576812
v -0.272330 2.553380 1.586256
v -0.288687 2.482888 1.576812
v -0.333378 2.431284 1.551010
v -0.394426 2.675477 1.586256
v -0.394426 2.623873 1.637860
v -0.394426 2.553380 1.656748
v -0.394426 2.482888 1.637860
v -0.394426 2.431284 1.586256
v -0.394426 2.694365 1.515764
v -0.455474 2.675477 1.551010
v -0.500164 2.623873 1.576812
v -0.516522 2.553380 1.586256
v -0.500164 2.482888 1.576812
v -0.455474 2.431284 1.551010
v -0.455474 2.675477 1.480518
v -0.500164 2.623873 1.454715
v -0.516522 2.553380 1.445271
v -0.500164 2.482888 1.454715
v -0.455474 2.431284 1.480518
v -0.394426 2.412396 1.515764
v 0.445403 2.675477 1.480518
v 0.490093 2.623873 1.454715
v 0.506451 2.553380 1.445271
v 0.490093 2.482888 1.454715
v 0.445403 2.431284 1.480518
v 0.445403 2.675477 1.551010
v 0.490093 2.623873 1.576812
v 0.506451 2.553380 1.586256
v 0.490093 2.482888 1.576812
v 0.445403 2.431284 1.551010
v 0.384355 2.675477 1.586256
v 0.384355 2.623873 1.637860
v 0.384355 2.553380 1.656748
v 0.384355 2.482888 1.637860
v 0.384355 2.431284 1.586256
v 0.384355 2.694365 1.515764
v 0.323307 2.675477 1.551010
v 0.278617 2.623873 1.576812
v 0.262259 2.553380 1.586256
v 0.278617 2.482888 1.576812
v 0.323307 2.431284 1.551010
v 0.384355 2.412396 1.515764
vn -0.0000 0.4743 -0.8804
vn -0.0000 0.8862 -0.4634
vn 0.6879 0.6884 -0.2298
vn 0.7726 0.3896 -0.5014
vn -0.0000 -0.8836 -0.4683
vn -0.0000 -0.6379 -0.7701
vn 0.6535 -0.5314 -0.5390
vn 0.4274 -0.8353 -0.3460
vn -0.0000 0.1177 -0.9930
vn 0.7879 0.1429 -0.5991
vn -0.0000 0.9974 0.0718
vn -0.0054 0.8999 -0.4360
vn 0.3512 0.9360 0.0237
vn -0.0000 -0.9976 -0.0699
vn 0.0849 -0.9948 -0.0571
vn -0.0000 -0.3052 -0.9523
vn 0.7396 -0.2339 -0.6311
vn -0.0000 0.9901 0.1407
vn 0.3973 0.9177 0.0037
vn -0.0000 -1.0000 -0.0073
vn 0.8758 0.4712 -0.1043
vn 0.9754 0.1696 -0.1409
vn 0.2844 0.9572 -0.0534
vn 0.5416 -0.8355 -0.0930
vn 0.1283 -0.9915 -0.0206
vn 0.9677 -0.1915 -0.1639
vn 0.4859 0.8725 -0.0507
vn 0.8555 -0.4929 -0.1588
vn 0.6572 0.7522 -0.0476
vn 0.4358 0.7734 -0.4603
vn 0.7901 0.4717 -0.3915
vn 0.1203 -0.9924 0.0272
vn 0.9153 -0.1816 0.3595
vn 0.8095 -0.5102 0.2906
vn 0.9667 0.2504 0.0521
vn 0.8242 0.5013 0.2636
vn 0.5019 -0.8537 0.1389
vn 0.9207 0.1890 0.3416
vn 0.3781 -0.5517 0.7434
vn 0.2583 -0.8786 0.4017
vn 0.4051 0.6530 0.6398
vn 0.4322 0.2892 0.8541
vn 0.0565 -0.9963 0.0642
vn 0.4385 -0.1754 0.8814
vn 0.8913 -0.0657 0.4487
vn 0.5530 0.1547 0.8187
vn -0.4322 0.2892 0.8541
vn -0.4385 -0.1754 0.8814
vn -0.0565 -0.9963 0.0642
vn -0.3781 -0.5517 0.7434
vn -0.0000 0.8597 0.5108
vn -0.5530 0.1547 0.8187
vn -0.4051 0.6530 0.6398
vn -0.2583 -0.8786 0.4017
vn -0.8913 -0.0657 0.4487
vn -0.9666 0.2510 0.0519
vn -0.8242 0.5013 0.2636
vn -0.8095 -0.5102 0.2906
vn -0.5019 -0.8537 0.1389
vn -0.9207 0.1890 0.3416
vn -0.1203 -0.9924 0.0272
vn -0.9153 -0.1816 0.3595
vn -0.4246 0.7717 -0.4735
vn -0.2659 0.9623 -0.0577
vn -0.5416 -0.8355 -0.0930
vn -0.1283 -0.9915 -0.0206
vn -0.9754 0.1696 -0.1409
vn -0.9677 -0.1915 -0.1639
vn -0.7819 0.4787 -0.3993
vn -0.4616 0.8860 -0.0444
vn -0.8555 -0.4929 -0.1588
vn -0.6553 0.7539 -0.0471
vn -0.8758 0.4712 -0.1043
vn -0.0849 -0.9948 -0.0571
vn -0.7396 -0.2339 -0.6311
vn -0.6535 -0.5314 -0.5390
vn -0.6876 0.6888 -0.2295
vn -0.7726 0.3896 -0.5014
vn -0.4274 -0.8353 -0.3460
vn -0.7879 0.1429 -0.5991
vn -0.3426 0.9389 0.0341
vn -0.3855 0.9226 0.0121
vn -0.0000 -0.8012 0.5984
vn 0.8232 -0.4884 0.2895
vn -0.8232 -0.4884 0.2895
vn 0.8599 -0.2515 -0.4442
vn -0.0000 -0.0000 -1.0000
vn -0.0000 0.4671 -0.8842
vn 0.7657 0.4671 -0.4421
vn 0.8660 -0.0000 -0.5000
vn -0.0000 0.8295 -0.5585
vn -0.0000 1.0000 -0.0000
vn 0.4837 0.8295 -0.2793
vn -0.0006 0.1201 -0.9928
vn 0.4837 0.8295 0.2793
vn 0.9279 0.1585 0.3375
vn 0.7657 0.4671 0.4421
vn -0.6833 -0.6913 0.2350
vn -0.0000 -0.9867 0.1626
vn -0.0000 -0.6862 0.7274
vn -0.4863 -0.6998 0.5232
vn -0.0000 0.8295 0.5585
vn -0.0000 0.4671 0.8842
vn -0.8599 -0.2515 -0.4442
vn -0.0000 0.6890 0.7248
vn 0.8703 0.3398 0.3564
vn -0.0000 0.9518 0.3066
vn -0.0000 0.5067 0.8621
vn 0.7374 0.3778 0.5599
vn -0.4837 0.8295 0.2793
vn -0.7657 0.4671 0.4421
vn -0.9279 0.1585 0.3375
vn -0.8660 -0.0000 -0.5000
vn -0.4837 0.8295 -0.2793
vn -0.7657 0.4671 -0.4421
vn 0.4863 -0.6998 0.5232
vn -0.7374 0.3778 0.5599
vn 0.6833 -0.6913 0.2350
vn -0.8703 0.3398 0.3564
vn -0.0000 0.0534 0.9986
vn 0.3069 0.7894 0.5316
vn -0.1010 0.9794 0.1749
vn -0.1010 -0.9794 0.1749
vn 0.3069 -0.7894 0.5316
vn -0.0000 -0.8295 0.5585
vn 0.4547 -0.4160 0.7875
vn 0.5000 -0.0000 0.8660
vn -0.0000 -0.0000 1.0000
vn -0.0000 -0.4671 0.8842
vn 0.4547 0.4160 0.7875
vn -0.4837 -0.8295 0.2793
vn -0.8660 -0.0000 0.5000
vn -0.7657 -0.4671 0.4421
vn -0.6138 -0.7894 -0.0000
vn -1.0000 -0.0000 -0.0000
vn -0.9093 -0.4160 -0.0000
vn -0.6138 0.7894 -0.0000
vn -0.9093 0.4160 -0.0000
vn 1.0000 -0.0000 -0.0000
vn 0.9093 0.4160 -0.0000
vn 0.8660 -0.0000 0.5000
vn 0.6138 0.7894 -0.0000
vn 0.1010 0.9794 0.1749
vn 0.1010 -0.9794 0.1749
vn 0.6138 -0.7894 -0.0000
vn 0.4837 -0.8295 0.2793
vn 0.9093 -0.4160 -0.0000
vn 0.7657 -0.4671 0.4421
vn -0.3069 -0.7894 0.5316
vn -0.5000 -0.0000 0.8660
vn -0.4547 -0.4160 0.7875
vn -0.3069 0.7894 0.5316
vn -0.4547 0.4160 0.7875
vt 0.032216 0.533415
vt 0.002793 0.493987
vt 0.078960 0.462568
vt 0.121764 0.504653
vt 0.700473 0.438369
vt 0.706082 0.494911
vt 0.617082 0.450560
vt 0.635447 0.415854
vt 0.098279 0.583062
vt 0.151276 0.528245
vt 0.689328 0.669128
vt 0.719227 0.781502
vt 0.653904 0.669741
vt 0.692839 0.361406
vt 0.657188 0.338826
vt 0.159869 0.602355
vt 0.200551 0.550794
vt 0.664481 0.584871
vt 0.637587 0.664340
vt 0.685969 0.292150
vt 0.709584 0.530218
vt 0.608332 0.479329
vt 0.184646 0.387403
vt 0.231084 0.416331
vt 0.654506 0.758871
vt 0.594125 0.336100
vt 0.637059 0.315122
vt 0.280360 0.438880
vt 0.634077 0.754467
vt 0.257753 0.542894
vt 0.326529 0.452329
vt 0.146647 0.355584
vt 0.321876 0.532184
vt 0.364024 0.455058
vt 0.679833 0.813943
vt 0.659035 0.840383
vt 0.635787 0.240049
vt 0.371306 0.231852
vt 0.406506 0.270272
vt 0.206008 0.220456
vt 0.264623 0.205346
vt 0.423385 0.319930
vt 0.322030 0.209304
vt 0.591734 0.195008
vt 0.558916 0.160368
vt 0.616728 0.047911
vt 0.633363 0.098633
vt 0.275526 0.104951
vt 0.338707 0.092001
vt 0.657937 0.188769
vt 0.387983 0.114549
vt 0.435305 0.161331
vt 0.229635 0.164927
vt 0.237254 0.128960
vt 0.196087 0.934642
vt 0.196087 0.879578
vt 0.302943 0.879578
vt 0.302943 0.934642
vt 0.693146 0.185277
vt 0.202531 1.000000
vt 0.296498 1.000000
vt 0.933098 0.742255
vt 0.957438 0.774456
vt 0.911426 0.783167
vt 0.914663 0.829260
vt 0.875467 0.816092
vt 0.705880 0.039067
vt 0.699534 0.092070
vt 0.202531 0.828977
vt 0.296498 0.828977
vt 0.915548 0.886527
vt 0.957438 0.930774
vt 0.904786 0.932508
vt 0.784658 0.137976
vt 0.759285 0.178388
vt 0.470454 0.573980
vt 0.445950 0.549757
vt 0.460673 0.497265
vt 0.486149 0.511594
vt 0.724939 0.231206
vt 0.500025 0.578193
vt 0.515720 0.515807
vt 0.536840 0.571065
vt 0.545819 0.509397
vt 0.770169 0.789190
vt 0.759160 0.728345
vt 0.784658 0.317200
vt 0.738439 0.305066
vt 0.503184 0.389340
vt 0.532755 0.393554
vt 0.802781 0.800996
vt 0.781633 0.713949
vt 0.560799 0.401889
vt 0.442363 0.474550
vt 0.453482 0.394754
vt 0.475653 0.389757
vt 0.572816 0.493136
vt 0.583934 0.413341
vt 0.723359 0.332262
vt 0.536753 0.321448
vt 0.562623 0.342481
vt 0.458996 0.327592
vt 0.488176 0.319895
vt 0.592370 0.367342
vt 0.507182 0.317235
vt 0.720954 0.651369
vt 0.759809 0.403518
vt 0.734118 0.637890
vt 0.784634 0.433940
vt 0.467773 0.284563
vt 0.513217 0.281341
vt 0.547523 0.290669
vt 0.578671 0.316830
vt 0.442363 0.293909
vt 0.736469 0.587608
vt 0.653706 0.545364
vt 0.803519 0.699654
vt 0.830155 0.845145
vt 0.875467 0.840701
vt 0.831236 0.805828
vt 0.873761 0.742255
vt 0.873761 0.939147
vt 0.831236 0.875573
vt 0.134159 0.340148
vt 0.167061 0.256372
vt 0.610457 0.622136
vt 0.610457 0.752555
vt 0.146161 0.268336
vt 0.157253 0.230018
vt 0.051395 0.263710
vt 0.000000 0.220852
vt 0.039844 0.176291
vt 0.097402 0.212255
vt 0.158987 0.747004
vt 0.103970 0.713303
vt 0.158987 0.681427
vt 0.117409 0.274579
vt 0.196087 0.773088
vt 0.196087 0.659505
vt 0.102382 0.648432
vt 0.151964 0.092872
vt 0.204504 0.126629
vt 0.000000 0.131762
vt 0.027281 0.072070
vt 0.087095 0.072902
vt 0.126437 0.282203
vt 0.735247 0.884366
vt 0.738130 0.933884
vt 0.597145 0.943185
vt 0.598381 0.892603
vt 0.098044 0.602355
vt 0.045776 0.681013
vt 0.000000 0.658788
vt 0.453179 0.802931
vt 0.479706 0.784134
vt 0.459885 0.821083
vt 0.345813 0.602355
vt 0.411150 0.617585
vt 0.412856 0.716031
vt 0.347783 0.716031
vt 0.711795 0.893146
vt 0.714635 0.926215
vt 0.615032 0.925196
vt 0.616417 0.898502
vt 0.045776 0.746591
vt 0.000000 0.772371
vt 0.411150 0.814476
vt 0.345813 0.829706
vt 0.479706 0.670582
vt 0.546422 0.662237
vt 0.546422 0.793355
vt 0.102382 0.779586
vt 0.098044 0.829521
vt 0.610457 0.670043
vt 0.610457 0.783594
vt 0.536417 0.853629
vt 0.471041 0.836332
vt 0.719040 0.784144
vt 0.828421 0.813005
vt 0.601793 0.835793
vt 0.625397 0.914485
vt 0.650143 0.902344
vt 0.651212 0.936331
vt 0.626202 0.936331
vt 0.654049 0.960552
vt 0.625397 0.960129
vt 0.685355 0.965481
vt 0.660990 0.965681
vt 0.661212 0.938965
vt 0.686031 0.938837
vt 0.719607 0.986262
vt 0.611534 0.983472
vt 0.744549 0.989603
vt 0.593730 0.989892
vt 0.699865 0.967257
vt 0.656471 0.975523
vt 0.661818 0.920835
vt 0.687633 0.924132
vt 0.490254 0.646499
vt 0.533648 0.638233
vt 0.924934 0.643810
vt 0.981734 0.742255
vt 0.957406 0.739833
vt 0.900606 0.643810
vt 0.280294 0.715360
vt 0.345813 0.828977
vt 0.321170 0.827082
vt 0.255651 0.716254
vt 0.172709 0.076033
vt 0.204398 0.100247
vt 0.345813 0.602355
vt 0.321170 0.606036
vt 0.981734 0.545364
vt 0.957406 0.547786
vt 0.436084 0.754860
vt 0.830155 0.920148
vt 0.830155 0.761254
vt 0.831643 0.840701
vt 0.435305 0.694165
vt 0.925416 0.793478
vt 0.960287 0.385251
vt 0.944040 0.417744
vt 0.927794 0.385251
vt 0.944040 0.222789
vt 0.960287 0.255281
vt 0.927794 0.255281
vt 0.960287 0.287774
vt 0.960287 0.320266
vt 0.927794 0.320266
vt 0.927794 0.287774
vt 0.960287 0.352759
vt 0.927794 0.352759
vt 0.911548 0.222789
vt 0.895302 0.255281
vt 0.895302 0.320266
vt 0.895302 0.287774
vt 0.895302 0.385251
vt 0.895302 0.352759
vt 0.911548 0.417744
vt 0.976623 0.222789
vt 0.992869 0.255281
vt 0.960377 0.255281
vt 0.992869 0.287774
vt 0.992869 0.320266
vt 0.960377 0.320266
vt 0.960377 0.287774
vt 0.992869 0.352759
vt 0.992869 0.385251
vt 0.960377 0.385251
vt 0.960377 0.352759
vt 0.976623 0.417744
vt 0.993201 0.116211
vt 0.993201 0.149338
vt 0.960073 0.149338
vt 0.960073 0.116211
vt 0.993201 0.182466
vt 0.976637 0.215593
vt 0.960073 0.182466
vt 0.976637 0.016829
vt 0.993201 0.049956
vt 0.960073 0.049956
vt 0.993201 0.083084
vt 0.960073 0.083084
vt 0.943510 0.215593
vt 0.926946 0.182466
vt 0.943510 0.016829
vt 0.926946 0.049956
vt 0.926946 0.116211
vt 0.926946 0.083084
vt 0.926946 0.149338
vt 0.910382 0.016829
vt 0.893818 0.049956
vt 0.893818 0.116211
vt 0.893818 0.083084
vt 0.893818 0.182466
vt 0.893818 0.149338
vt 0.910382 0.215593
s 1
usemtl Material
f 67/1/1 66/2/2 2/3/3 3/4/4
f 71/5/5 70/6/6 6/7/7 7/8/8
f 68/9/9 67/1/1 3/4/4 4/10/10
f 65/11/11 48/12/12 1/13/13
f 72/14/14 71/5/5 7/8/8 8/15/15
f 69/16/16 68/9/9 4/10/10 5/17/17
f 79/18/18 65/11/11 1/13/13 73/19/19
f 47/20/20 72/14/14 8/15/15
f 70/6/6 69/21/16 5/22/17 6/7/7
f 4/10/10 3/4/4 11/23/21 12/24/22
f 1/13/13 48/12/12 9/25/23
f 8/15/15 7/8/8 15/26/24 16/27/25
f 5/17/17 4/10/10 12/24/22 13/28/26
f 73/19/19 1/13/13 9/25/23 74/29/27
f 47/20/20 8/15/15 16/27/25
f 6/30/7 5/17/17 13/28/26 14/31/28
f 3/4/4 2/3/3 10/32/29 11/23/21
f 7/33/8 6/30/7 14/31/28 15/34/24
f 74/29/27 9/25/23 17/35/30 75/36/31
f 47/20/20 16/27/25 24/37/32
f 14/31/28 13/28/26 21/38/33 22/39/34
f 11/23/21 10/32/29 18/40/35 19/41/36
f 15/34/24 14/31/28 22/39/34 23/42/37
f 12/24/22 11/23/21 19/41/36 20/43/38
f 9/25/23 48/12/12 17/35/30
f 16/27/25 15/26/24 23/44/37 24/37/32
f 13/28/26 12/24/22 20/43/38 21/38/33
f 23/44/37 22/45/34 29/46/39 30/47/40
f 20/43/38 19/41/36 26/48/41 27/49/42
f 24/37/32 23/44/37 30/47/40 31/50/43
f 21/38/33 20/43/38 27/49/42 28/51/44
f 47/20/20 24/37/32 31/50/43
f 22/39/34 21/38/33 28/51/44 29/52/39
f 19/41/36 18/40/35 117/53/45 25/54/46 26/48/41
f 28/55/44 27/56/42 34/57/47 35/58/48
f 47/20/20 31/50/43 38/59/49
f 29/60/39 28/55/44 35/58/48 36/61/50
f 26/62/41 25/63/46 119/64/51 32/65/52 33/66/53
f 30/47/40 29/46/39 36/67/50 37/68/54
f 27/56/42 26/69/41 33/70/53 34/57/47
f 31/50/43 30/47/40 37/68/54 38/59/49
f 33/66/53 32/65/52 118/71/55 40/72/56 41/73/57
f 37/68/54 36/67/50 44/74/58 45/75/59
f 34/76/47 33/77/53 41/78/57 42/79/60
f 38/59/49 37/68/54 45/75/59 46/80/61
f 35/81/48 34/76/47 42/79/60 43/82/62
f 47/20/20 38/59/49 46/80/61
f 36/83/50 35/81/48 43/82/62 44/84/58
f 39/85/63 48/12/12 49/86/64
f 46/80/61 45/75/59 55/87/65 56/88/66
f 43/82/62 42/79/60 52/89/67 53/90/68
f 76/91/69 39/85/63 49/86/64 77/92/70
f 47/20/20 46/80/61 56/88/66
f 44/84/58 43/82/62 53/90/68 54/93/71
f 41/78/57 40/94/56 50/95/72 51/96/73
f 45/97/59 44/84/58 54/93/71 55/98/65
f 42/79/60 41/78/57 51/96/73 52/89/67
f 47/20/20 56/88/66 64/99/74
f 54/93/71 53/90/68 61/100/75 62/101/76
f 51/96/73 50/95/72 58/102/77 59/103/78
f 55/98/65 54/93/71 62/101/76 63/104/79
f 52/89/67 51/96/73 59/103/78 60/105/80
f 49/86/64 48/12/12 57/106/81
f 56/88/66 55/87/65 63/107/79 64/99/74
f 53/90/68 52/89/67 60/105/80 61/100/75
f 77/92/70 49/86/64 57/106/81 78/108/82
f 63/107/79 62/109/76 70/6/6 71/5/5
f 60/105/80 59/103/78 67/110/1 68/111/9
f 57/106/81 48/12/12 65/11/11
f 64/99/74 63/107/79 71/5/5 72/14/14
f 61/100/75 60/105/80 68/111/9 69/112/16
f 78/108/82 57/106/81 65/11/11 79/18/18
f 47/20/20 64/99/74 72/14/14
f 62/101/76 61/100/75 69/112/16 70/113/6
f 59/103/78 58/102/77 66/114/2 67/110/1
f 58/115/77 78/108/82 79/18/18 66/116/2
f 50/117/72 77/92/70 78/108/82 58/115/77
f 40/118/56 76/91/69 77/92/70 50/117/72
f 95/119/83 25/120/46 91/121/84
f 100/122/85 32/123/52 95/119/83
f 10/32/29 74/124/27 75/125/31 18/40/35
f 2/126/3 73/19/19 74/29/27 10/127/29
f 66/116/2 79/18/18 73/19/19 2/126/3
f 75/125/31 17/128/30 87/129/86
f 82/130/87 81/131/88 85/132/89 86/133/90
f 80/134/91 96/135/92 84/136/93
f 83/137/94 82/130/87 86/133/90 87/129/86
f 81/138/88 80/134/91 84/136/93 85/139/89
f 84/136/93 96/135/92 88/140/95
f 87/129/86 86/133/90 90/141/96 91/142/84
f 85/132/89 84/143/93 88/144/95 89/145/97
f 17/128/30 48/146/12 83/137/94 87/129/86
f 86/133/90 85/132/89 89/145/97 90/141/96
f 114/147/98 113/148/99 108/149/100 110/150/101
f 89/151/97 88/140/95 92/152/102 93/153/103
f 76/154/69 104/155/104 39/156/63
f 90/157/96 89/158/97 93/159/103 94/160/105
f 88/140/95 96/135/92 92/152/102
f 112/161/106 111/162/107 107/163/108 105/164/109
f 93/153/103 92/152/102 97/165/110 98/166/111
f 18/40/35 75/125/31 87/129/86
f 94/160/105 93/159/103 98/167/111 99/168/112
f 92/152/102 96/135/92 97/165/110
f 100/169/85 99/170/112 103/171/113 104/155/104
f 98/166/111 97/165/110 101/172/114 102/173/115
f 91/142/84 18/40/35 87/129/86
f 99/170/112 98/174/111 102/175/115 103/171/113
f 97/165/110 96/135/92 101/172/114
f 104/155/104 103/171/113 82/176/87 83/177/94
f 102/173/115 101/172/114 80/134/91 81/138/88
f 83/178/94 48/12/12 39/85/63 104/179/104
f 103/171/113 102/175/115 81/180/88 82/176/87
f 101/172/114 96/135/92 80/134/91
f 106/181/116 105/182/109 107/183/108 108/184/100
f 108/184/100 107/183/108 109/185/117 110/186/101
f 115/187/118 112/188/106 105/189/109 106/190/116
f 111/162/107 116/191/119 109/192/117 107/163/108
f 113/148/99 115/193/118 106/194/116 108/149/100
f 116/195/119 114/196/98 110/197/101 109/198/117
f 99/170/112 100/169/85 114/199/98 116/200/119
f 95/201/83 91/202/84 115/203/118 113/204/99
f 94/205/105 99/206/112 116/207/119 111/208/107
f 91/142/84 90/141/96 112/209/106 115/210/118
f 90/211/96 94/205/105 111/208/107 112/212/106
f 100/213/85 95/201/83 113/204/99 114/214/98
f 40/215/56 100/169/85 104/155/104
f 104/155/104 76/154/69 40/215/56
f 100/122/85 118/216/55 32/123/52
f 25/120/46 117/217/45 91/121/84
f 95/119/83 32/123/52 120/218/120
f 91/142/84 117/53/45 18/40/35
f 118/219/55 100/169/85 40/215/56
f 119/64/51 25/63/46 120/220/120 32/65/52
f 120/218/120 25/120/46 95/119/83
f 121/221/121 131/222/122 126/223/102
f 142/224/123 125/225/124 130/226/125
f 124/227/126 123/228/127 128/229/128 129/230/129
f 122/231/130 121/221/121 126/223/102 127/232/103
f 125/225/124 124/227/126 129/230/129 130/226/125
f 123/228/127 122/231/130 127/232/103 128/229/128
f 142/233/123 130/226/125 136/234/131
f 129/230/129 128/229/128 134/235/132 135/236/133
f 127/232/103 126/223/102 132/237/110 133/238/111
f 130/226/125 129/230/129 135/236/133 136/234/131
f 128/229/128 127/232/103 133/238/111 134/235/132
f 126/223/102 131/239/122 132/237/110
f 142/240/123 136/241/131 141/242/134
f 135/243/133 134/244/132 139/245/135 140/246/136
f 133/247/111 132/248/110 137/249/137 138/250/138
f 136/241/131 135/243/133 140/246/136 141/242/134
f 134/244/132 133/247/111 138/250/138 139/245/135
f 132/248/110 131/251/122 137/249/137
f 145/252/139 144/253/140 149/254/97 150/255/141
f 143/256/142 158/257/143 148/258/95
f 164/259/144 147/260/145 152/261/146
f 146/262/147 145/252/139 150/255/141 151/263/148
f 144/253/140 143/256/142 148/258/95 149/254/97
f 147/260/145 146/262/147 151/263/148 152/261/146
f 148/258/95 158/264/143 153/265/102
f 164/266/144 152/261/146 157/267/125
f 151/263/148 150/255/141 155/268/128 156/269/129
f 149/254/97 148/258/95 153/265/102 154/270/103
f 152/261/146 151/263/148 156/269/129 157/267/125
f 150/255/141 149/254/97 154/270/103 155/268/128
f 164/271/144 157/267/125 163/272/149
f 156/269/129 155/268/128 161/273/150 162/274/151
f 154/270/103 153/265/102 159/275/152 160/276/153
f 157/267/125 156/269/129 162/274/151 163/272/149
f 155/268/128 154/270/103 160/276/153 161/273/150
f 153/265/102 158/277/143 159/275/152
